<?xml version="1.0" encoding="iso-8859-1"?>
<!-- Generator: Adobe Illustrator 18.0.0, SVG Export Plug-In . SVG Version: 6.00 Build 0)  -->
<!DOCTYPE svg PUBLIC "-//W3C//DTD SVG 1.1//EN" "http://www.w3.org/Graphics/SVG/1.1/DTD/svg11.dtd">
<svg xmlns="http://www.w3.org/2000/svg" xmlns:xlink="http://www.w3.org/1999/xlink" version="1.1" id="Capa_1" x="0px" y="0px" viewBox="0 0 297 297" style="enable-background:new 0 0 297 297;" xml:space="preserve" width="512px" height="512px">
<g>
	<path d="M112.517,25.49c2.715,0,5.357-1.101,7.27-3.015c1.924-1.912,3.015-4.565,3.015-7.27c0-2.704-1.091-5.357-3.015-7.272   c-1.912-1.913-4.555-3.013-7.27-3.013c-2.705,0-5.358,1.1-7.271,3.013c-1.914,1.914-3.014,4.567-3.014,7.272   c0,2.705,1.1,5.358,3.014,7.27C107.159,24.388,109.812,25.49,112.517,25.49z" fill="#006DF0"/>
	<path d="M236.596,125.172l-84.847-50.908c-3.256-1.954-7.326-1.954-10.582,0l-84.847,50.908c-3.099,1.859-4.994,5.207-4.994,8.819   v152.725c0,5.68,4.605,10.284,10.285,10.284h169.693c5.68,0,10.285-4.604,10.285-10.284V133.991   C241.59,130.379,239.695,127.031,236.596,125.172z M170.113,276.431h-47.309v-64.278h47.309V276.431z M221.021,276.431h-30.339   v-74.563c0-5.68-4.605-10.285-10.285-10.285H112.52c-5.68,0-10.285,4.605-10.285,10.285v74.563H71.896V139.814l74.563-44.737   l74.563,44.737V276.431z" fill="#006DF0"/>
	<path d="M61.609,93.367c2.704,0,5.358-1.101,7.27-3.014c1.924-1.912,3.015-4.565,3.015-7.271c0-2.705-1.091-5.358-3.015-7.271   c-1.912-1.913-4.555-3.013-7.27-3.013c-2.705,0-5.358,1.1-7.271,3.013c-1.914,1.913-3.014,4.566-3.014,7.271   c0,2.705,1.1,5.358,3.014,7.271C56.26,92.266,58.904,93.367,61.609,93.367z" fill="#006DF0"/>
	<path d="M289.481,92.781c-1.912-1.914-4.565-3.014-7.271-3.014c-2.704,0-5.357,1.1-7.271,3.014   c-1.913,1.913-3.013,4.566-3.013,7.271c0,2.704,1.1,5.357,3.013,7.271c1.924,1.913,4.567,3.014,7.271,3.014   c2.705,0,5.358-1.101,7.271-3.014c1.924-1.913,3.015-4.566,3.015-7.271C292.495,97.347,291.405,94.694,289.481,92.781z" fill="#006DF0"/>
	<path d="M255.542,7.933c-1.912-1.913-4.566-3.013-7.27-3.013c-2.705,0-5.358,1.1-7.271,3.013c-1.913,1.914-3.013,4.567-3.013,7.272   c0,2.705,1.1,5.358,3.013,7.27c1.913,1.913,4.566,3.015,7.271,3.015c2.704,0,5.358-1.101,7.27-3.015   c1.923-1.912,3.014-4.565,3.014-7.27C258.556,12.501,257.465,9.847,255.542,7.933z" fill="#006DF0"/>
	<path d="M186.374,47.38c1.303,0,2.625-0.311,3.856-0.966c0.734-0.391,18.081-9.866,26.003-35.778   c1.329-4.345-1.116-8.944-5.462-10.273c-4.341-1.329-8.945,1.116-10.273,5.463c-5.793,18.945-17.436,25.743-18.063,26.097   c-3.961,2.154-5.454,7.102-3.333,11.092C180.581,45.795,183.429,47.38,186.374,47.38z" fill="#006DF0"/>
	<path d="M65.226,21.747c21.665,14.527,22.095,44.095,22.097,44.392c0.013,4.531,3.692,8.202,8.228,8.202   c4.544,0,8.228-3.684,8.228-8.228c0-1.564-0.335-38.552-29.388-58.033c-3.771-2.529-8.886-1.524-11.416,2.251   C60.443,14.104,61.451,19.215,65.226,21.747z" fill="#006DF0"/>
	<path d="M242.909,57.857c-17.893,10.674-28.626,29.832-29.075,30.643c-2.198,3.977-0.758,8.983,3.219,11.183   c1.262,0.698,2.628,1.029,3.975,1.029c2.896,0,5.706-1.533,7.207-4.247c0.089-0.159,8.988-16.055,23.105-24.476   c3.901-2.328,5.178-7.378,2.85-11.281C251.863,56.807,246.812,55.527,242.909,57.857z" fill="#006DF0"/>
	<polygon points="23.114,155.874 15.905,160.304 8.166,156.879 10.154,165.105 4.504,171.406 12.942,172.057 17.189,179.378    20.416,171.554 28.69,169.778 22.247,164.29  " fill="#006DF0"/>
	<polygon points="154.896,24.855 159.143,32.174 162.37,24.351 170.644,22.575 164.2,17.088 165.068,8.671 157.859,13.102    150.12,9.676 152.108,17.903 146.458,24.203  " fill="#006DF0"/>
	<polygon points="276.637,161.395 269.428,165.827 261.69,162.401 263.677,170.628 258.028,176.927 266.465,177.58 270.712,184.899    273.94,177.076 282.213,175.299 275.771,169.812  " fill="#006DF0"/>
	<path d="M16.774,25.708c-4.031-2.099-9-0.532-11.1,3.497c-0.666,1.279-0.963,2.653-0.93,3.999c0.073,2.895,1.676,5.667,4.428,7.099   c0.161,0.085,16.277,8.584,25.051,22.486c2.425,3.842,7.507,4.992,11.351,2.566c3.841-2.424,4.994-7.504,2.566-11.349   C37.02,36.386,17.595,26.136,16.774,25.708z" fill="#006DF0"/>
</g>
<g>
</g>
<g>
</g>
<g>
</g>
<g>
</g>
<g>
</g>
<g>
</g>
<g>
</g>
<g>
</g>
<g>
</g>
<g>
</g>
<g>
</g>
<g>
</g>
<g>
</g>
<g>
</g>
<g>
</g>
</svg>
